<svg xmlns="http://www.w3.org/2000/svg" width="900" height="770" viewBox="0 0 900 770"><rect width="900" height="770" fill="white"/><line x1="110" y1="70" x2="720" y2="70" stroke="#c00" stroke-width="2"/><text x="120" y="62" font-family="Helvetica,Arial" font-size="13" font-weight="bold" text-anchor="start" fill="#c00">VDD = 1.8 V</text><line x1="110" y1="700" x2="720" y2="700" stroke="#06c" stroke-width="2"/><text x="120" y="720" font-family="Helvetica,Arial" font-size="13" font-weight="bold" text-anchor="start" fill="#06c">VSS (GND)</text><circle cx="110" cy="120" r="16" fill="white" stroke="#111" stroke-width="2"/><line x1="110" y1="111" x2="110" y2="126" stroke="#111" stroke-width="2"/><path d="M 110,129 l 5,-7 l -10,0 z" fill="#111"/><line x1="110" y1="94" x2="110" y2="104" stroke="#111" stroke-width="2"/><line x1="110" y1="136" x2="110" y2="146" stroke="#111" stroke-width="2"/><text x="132" y="118" font-family="Helvetica,Arial" font-size="12" font-weight="bold" text-anchor="start" fill="#841">Iref</text><text x="132" y="132" font-family="Helvetica,Arial" font-size="10" font-weight="normal" text-anchor="start" fill="#666">10u</text><line x1="110" y1="94" x2="110" y2="70" stroke="#111" stroke-width="2"/><line x1="110" y1="210" x2="110" y2="232" stroke="#111" stroke-width="2"/><line x1="110" y1="290" x2="110" y2="268" stroke="#111" stroke-width="2"/><line x1="110" y1="232" x2="110" y2="268" stroke="#111" stroke-width="3"/><line x1="103" y1="236" x2="103" y2="264" stroke="#111" stroke-width="3"/><line x1="80" y1="250" x2="103" y2="250" stroke="#111" stroke-width="2"/><path d="M 109,268 l 7,-7 l -7,0 z" fill="#111"/><text x="76" y="242" font-family="Helvetica,Arial" font-size="11" font-weight="normal" text-anchor="middle" fill="#111"></text><text x="126" y="254" font-family="Helvetica,Arial" font-size="12" font-weight="bold" text-anchor="start" fill="#0a4">MB</text><text x="126" y="269" font-family="Helvetica,Arial" font-size="10" font-weight="normal" text-anchor="start" fill="#666">5/1</text><line x1="110" y1="146" x2="110" y2="210" stroke="#111" stroke-width="2"/><line x1="110" y1="210" x2="110" y2="210" stroke="#111" stroke-width="2"/><line x1="80" y1="250" x2="70" y2="250" stroke="#111" stroke-width="2"/><line x1="70" y1="250" x2="70" y2="195" stroke="#111" stroke-width="2"/><line x1="70" y1="195" x2="110" y2="195" stroke="#111" stroke-width="2"/><line x1="110" y1="290" x2="110" y2="700" stroke="#111" stroke-width="2"/><line x1="150" y1="195" x2="150" y2="640" stroke="#111" stroke-width="2"/><line x1="110" y1="195" x2="150" y2="195" stroke="#111" stroke-width="2"/><circle cx="110" cy="195" r="4" fill="#111"/><line x1="150" y1="640" x2="690" y2="640" stroke="#111" stroke-width="2"/><text x="300" y="656" font-family="Helvetica,Arial" font-size="11" font-weight="normal" text-anchor="middle" fill="#841">nbias</text><line x1="360" y1="400" x2="360" y2="422" stroke="#111" stroke-width="2"/><line x1="360" y1="480" x2="360" y2="458" stroke="#111" stroke-width="2"/><line x1="360" y1="422" x2="360" y2="458" stroke="#111" stroke-width="3"/><line x1="353" y1="426" x2="353" y2="454" stroke="#111" stroke-width="3"/><line x1="330" y1="440" x2="353" y2="440" stroke="#111" stroke-width="2"/><path d="M 359,458 l 7,-7 l -7,0 z" fill="#111"/><text x="326" y="432" font-family="Helvetica,Arial" font-size="11" font-weight="normal" text-anchor="middle" fill="#111"></text><text x="376" y="444" font-family="Helvetica,Arial" font-size="12" font-weight="bold" text-anchor="start" fill="#0a4">M1</text><text x="376" y="459" font-family="Helvetica,Arial" font-size="10" font-weight="normal" text-anchor="start" fill="#666">8/1</text><line x1="520" y1="400" x2="520" y2="422" stroke="#111" stroke-width="2"/><line x1="520" y1="480" x2="520" y2="458" stroke="#111" stroke-width="2"/><line x1="520" y1="422" x2="520" y2="458" stroke="#111" stroke-width="3"/><line x1="527" y1="426" x2="527" y2="454" stroke="#111" stroke-width="3"/><line x1="550" y1="440" x2="527" y2="440" stroke="#111" stroke-width="2"/><path d="M 519,458 l 7,-7 l -7,0 z" fill="#111"/><text x="554" y="432" font-family="Helvetica,Arial" font-size="11" font-weight="normal" text-anchor="middle" fill="#111"></text><text x="504" y="444" font-family="Helvetica,Arial" font-size="12" font-weight="bold" text-anchor="end" fill="#0a4">M2</text><text x="504" y="459" font-family="Helvetica,Arial" font-size="10" font-weight="normal" text-anchor="end" fill="#666">8/1</text><line x1="360" y1="480" x2="360" y2="485" stroke="#111" stroke-width="2"/><line x1="520" y1="480" x2="520" y2="485" stroke="#111" stroke-width="2"/><line x1="360" y1="485" x2="520" y2="485" stroke="#111" stroke-width="2"/><text x="440" y="478" font-family="Helvetica,Arial" font-size="11" font-weight="normal" text-anchor="middle" fill="#841">tail</text><line x1="440" y1="520" x2="440" y2="542" stroke="#111" stroke-width="2"/><line x1="440" y1="600" x2="440" y2="578" stroke="#111" stroke-width="2"/><line x1="440" y1="542" x2="440" y2="578" stroke="#111" stroke-width="3"/><line x1="433" y1="546" x2="433" y2="574" stroke="#111" stroke-width="3"/><line x1="410" y1="560" x2="433" y2="560" stroke="#111" stroke-width="2"/><path d="M 439,578 l 7,-7 l -7,0 z" fill="#111"/><text x="406" y="552" font-family="Helvetica,Arial" font-size="11" font-weight="normal" text-anchor="middle" fill="#111"></text><text x="456" y="564" font-family="Helvetica,Arial" font-size="12" font-weight="bold" text-anchor="start" fill="#0a4">M5</text><text x="456" y="579" font-family="Helvetica,Arial" font-size="10" font-weight="normal" text-anchor="start" fill="#666">10/1</text><line x1="440" y1="520" x2="440" y2="485" stroke="#111" stroke-width="2"/><circle cx="440" cy="485" r="4" fill="#111"/><line x1="440" y1="600" x2="440" y2="700" stroke="#111" stroke-width="2"/><line x1="410" y1="560" x2="410" y2="560" stroke="#111" stroke-width="2"/><line x1="410" y1="560" x2="410" y2="640" stroke="#111" stroke-width="2"/><circle cx="410" cy="640" r="4" fill="#111"/><line x1="360" y1="210" x2="360" y2="232" stroke="#111" stroke-width="2"/><line x1="360" y1="290" x2="360" y2="268" stroke="#111" stroke-width="2"/><line x1="360" y1="232" x2="360" y2="268" stroke="#111" stroke-width="3"/><line x1="353" y1="236" x2="353" y2="264" stroke="#111" stroke-width="3"/><circle cx="347" cy="250" r="4" fill="white" stroke="#111" stroke-width="2"/><line x1="330" y1="250" x2="343" y2="250" stroke="#111" stroke-width="2"/><text x="376" y="254" font-family="Helvetica,Arial" font-size="12" font-weight="bold" text-anchor="start" fill="#a00">M4</text><text x="376" y="269" font-family="Helvetica,Arial" font-size="10" font-weight="normal" text-anchor="start" fill="#666">10/1</text><line x1="520" y1="210" x2="520" y2="232" stroke="#111" stroke-width="2"/><line x1="520" y1="290" x2="520" y2="268" stroke="#111" stroke-width="2"/><line x1="520" y1="232" x2="520" y2="268" stroke="#111" stroke-width="3"/><line x1="513" y1="236" x2="513" y2="264" stroke="#111" stroke-width="3"/><circle cx="507" cy="250" r="4" fill="white" stroke="#111" stroke-width="2"/><line x1="490" y1="250" x2="503" y2="250" stroke="#111" stroke-width="2"/><text x="536" y="254" font-family="Helvetica,Arial" font-size="12" font-weight="bold" text-anchor="start" fill="#a00">M3</text><text x="536" y="269" font-family="Helvetica,Arial" font-size="10" font-weight="normal" text-anchor="start" fill="#666">10/1</text><line x1="360" y1="210" x2="360" y2="70" stroke="#111" stroke-width="2"/><line x1="520" y1="210" x2="520" y2="70" stroke="#111" stroke-width="2"/><line x1="360" y1="290" x2="360" y2="400" stroke="#111" stroke-width="2"/><line x1="360" y1="400" x2="360" y2="400" stroke="#111" stroke-width="2"/><text x="345" y="360" font-family="Helvetica,Arial" font-size="11" font-weight="normal" text-anchor="end" fill="#841">d1</text><line x1="330" y1="250" x2="325" y2="250" stroke="#111" stroke-width="2"/><line x1="325" y1="250" x2="325" y2="360" stroke="#111" stroke-width="2"/><line x1="325" y1="360" x2="360" y2="360" stroke="#111" stroke-width="2"/><circle cx="360" cy="360" r="4" fill="#111"/><line x1="490" y1="250" x2="490" y2="250" stroke="#111" stroke-width="2"/><line x1="490" y1="250" x2="490" y2="360" stroke="#111" stroke-width="2"/><line x1="490" y1="360" x2="360" y2="360" stroke="#111" stroke-width="2"/><line x1="520" y1="290" x2="520" y2="400" stroke="#111" stroke-width="2"/><line x1="520" y1="400" x2="520" y2="400" stroke="#111" stroke-width="2"/><text x="535" y="360" font-family="Helvetica,Arial" font-size="11" font-weight="normal" text-anchor="start" fill="#841">d2</text><line x1="700" y1="210" x2="700" y2="232" stroke="#111" stroke-width="2"/><line x1="700" y1="290" x2="700" y2="268" stroke="#111" stroke-width="2"/><line x1="700" y1="232" x2="700" y2="268" stroke="#111" stroke-width="3"/><line x1="693" y1="236" x2="693" y2="264" stroke="#111" stroke-width="3"/><line x1="670" y1="250" x2="693" y2="250" stroke="#111" stroke-width="2"/><path d="M 699,268 l 7,-7 l -7,0 z" fill="#111"/><text x="666" y="242" font-family="Helvetica,Arial" font-size="11" font-weight="normal" text-anchor="middle" fill="#111"></text><text x="716" y="254" font-family="Helvetica,Arial" font-size="12" font-weight="bold" text-anchor="start" fill="#0a4">M6</text><text x="716" y="269" font-family="Helvetica,Arial" font-size="10" font-weight="normal" text-anchor="start" fill="#666">24/0.5</text><line x1="700" y1="210" x2="700" y2="70" stroke="#111" stroke-width="2"/><line x1="520" y1="330" x2="670" y2="330" stroke="#111" stroke-width="2"/><circle cx="520" cy="330" r="4" fill="#111"/><line x1="670" y1="250" x2="670" y2="250" stroke="#111" stroke-width="2"/><line x1="670" y1="250" x2="670" y2="330" stroke="#111" stroke-width="2"/><line x1="600" y1="353" x2="600" y2="362" stroke="#111" stroke-width="2"/><line x1="584" y1="362" x2="616" y2="362" stroke="#111" stroke-width="3"/><line x1="584" y1="368" x2="616" y2="368" stroke="#111" stroke-width="3"/><line x1="600" y1="368" x2="600" y2="377" stroke="#111" stroke-width="2"/><text x="620" y="363" font-family="Helvetica,Arial" font-size="12" font-weight="bold" text-anchor="start" fill="#06c">Cc</text><text x="620" y="377" font-family="Helvetica,Arial" font-size="10" font-weight="normal" text-anchor="start" fill="#666">4p</text><line x1="600" y1="330" x2="600" y2="353" stroke="#111" stroke-width="2"/><circle cx="600" cy="330" r="4" fill="#111"/><line x1="600" y1="377" x2="600" y2="700" stroke="#111" stroke-width="2"/><line x1="700" y1="290" x2="700" y2="320" stroke="#111" stroke-width="2"/><text x="715" y="305" font-family="Helvetica,Arial" font-size="11" font-weight="normal" text-anchor="start" fill="#841">sfs</text><rect x="693.0" y="320" width="14" height="90" fill="white" stroke="#111" stroke-width="2"/><text x="714" y="361.0" font-family="Helvetica,Arial" font-size="12" font-weight="bold" text-anchor="start" fill="#06c">Rdeg</text><text x="714" y="377.0" font-family="Helvetica,Arial" font-size="10" font-weight="normal" text-anchor="start" fill="#666">~2.85k</text><line x1="700" y1="480" x2="700" y2="502" stroke="#111" stroke-width="2"/><line x1="700" y1="560" x2="700" y2="538" stroke="#111" stroke-width="2"/><line x1="700" y1="502" x2="700" y2="538" stroke="#111" stroke-width="3"/><line x1="693" y1="506" x2="693" y2="534" stroke="#111" stroke-width="3"/><line x1="670" y1="520" x2="693" y2="520" stroke="#111" stroke-width="2"/><path d="M 699,538 l 7,-7 l -7,0 z" fill="#111"/><text x="666" y="512" font-family="Helvetica,Arial" font-size="11" font-weight="normal" text-anchor="middle" fill="#111"></text><text x="716" y="524" font-family="Helvetica,Arial" font-size="12" font-weight="bold" text-anchor="start" fill="#0a4">M7</text><text x="716" y="539" font-family="Helvetica,Arial" font-size="10" font-weight="normal" text-anchor="start" fill="#666">20/1</text><line x1="700" y1="410" x2="700" y2="440" stroke="#111" stroke-width="2"/><line x1="700" y1="440" x2="700" y2="480" stroke="#111" stroke-width="2"/><line x1="700" y1="560" x2="700" y2="700" stroke="#111" stroke-width="2"/><line x1="670" y1="520" x2="670" y2="520" stroke="#111" stroke-width="2"/><line x1="670" y1="520" x2="670" y2="640" stroke="#111" stroke-width="2"/><circle cx="670" cy="640" r="4" fill="#111"/><circle cx="700" cy="440" r="4" fill="#111"/><text x="715" y="436" font-family="Helvetica,Arial" font-size="11" font-weight="normal" text-anchor="start" fill="#841">vout</text><line x1="330" y1="440" x2="200" y2="440" stroke="#111" stroke-width="2"/><circle cx="200" cy="440" r="4" fill="white" stroke="#111" stroke-width="2"/><text x="192" y="444" font-family="Helvetica,Arial" font-size="13" font-weight="bold" text-anchor="end" fill="#000">VIN+</text><line x1="700" y1="440" x2="820" y2="440" stroke="#111" stroke-width="2"/><circle cx="820" cy="440" r="4" fill="white" stroke="#111" stroke-width="2"/><text x="828" y="444" font-family="Helvetica,Arial" font-size="13" font-weight="bold" text-anchor="start" fill="#000">VOUT</text><line x1="550" y1="440" x2="700" y2="440" stroke="#111" stroke-width="2"/><circle cx="700" cy="440" r="4" fill="#111"/><text x="610" y="432" font-family="Helvetica,Arial" font-size="10" font-weight="normal" text-anchor="middle" fill="#093">feedback</text><text x="560" y="455" font-family="Helvetica,Arial" font-size="10" font-weight="normal" text-anchor="start" fill="#093">vinn = vout</text><text x="450.0" y="28" font-family="Helvetica,Arial" font-size="15" font-weight="bold" text-anchor="middle" fill="#000">SKY130 Voltage Buffer  —  5T NMOS-OTA + NMOS source-follower w/ R-degeneration</text><text x="450.0" y="46" font-family="Helvetica,Arial" font-size="11" font-weight="normal" text-anchor="middle" fill="#555">unity-gain feedback (vout -&gt; OTA minus-input)   |   netlist: vbuffer.spice</text><text x="150" y="459" font-family="Helvetica,Arial" font-size="11" font-weight="bold" text-anchor="end" fill="#7a1fa2">0.600 V</text><text x="760" y="449" font-family="Helvetica,Arial" font-size="11" font-weight="bold" text-anchor="start" fill="#7a1fa2">0.591 V</text><text x="345" y="347" font-family="Helvetica,Arial" font-size="11" font-weight="bold" text-anchor="end" fill="#7a1fa2">0.666 V</text><text x="535" y="347" font-family="Helvetica,Arial" font-size="11" font-weight="bold" text-anchor="start" fill="#7a1fa2">1.431 V</text><text x="748" y="305" font-family="Helvetica,Arial" font-size="11" font-weight="bold" text-anchor="start" fill="#7a1fa2">0.751 V</text><text x="468" y="481" font-family="Helvetica,Arial" font-size="11" font-weight="bold" text-anchor="start" fill="#7a1fa2">0.057 V</text><text x="335" y="656" font-family="Helvetica,Arial" font-size="11" font-weight="bold" text-anchor="start" fill="#7a1fa2">0.701 V</text><rect x="64" y="86" width="250" height="46" fill="#f7f0fb" stroke="#7a1fa2" stroke-width="1" rx="4"/><text x="72" y="103" font-family="Helvetica,Arial" font-size="11" font-weight="bold" text-anchor="start" fill="#7a1fa2">DC operating point</text><text x="72" y="117" font-family="Helvetica,Arial" font-size="9.5" font-weight="normal" text-anchor="start" fill="#444444">VDD=1.8 V, Vin=0.6 V, TT, 27 C</text><text x="72" y="129" font-family="Helvetica,Arial" font-size="9.5" font-weight="normal" text-anchor="start" fill="#444444">I(supply)=75.9 uA   P=137 uW</text></svg>